<svg id="Group_43645" data-name="Group 43645" xmlns="http://www.w3.org/2000/svg" width="133.448" height="33" viewBox="0 0 133.448 33">
  <g id="eazy_logo" transform="translate(0)">
    <g id="Group-6">
      <path id="Fill-2" d="M23.475,29h4.2a1.125,1.125,0,1,1,0,2.249H24.339V36.7h2.3a1.064,1.064,0,1,1,0,2.127h-2.3v3.242h3.347a1.111,1.111,0,1,1,0,2.221H23.475A1.447,1.447,0,0,1,22,42.875V30.418A1.447,1.447,0,0,1,23.475,29" transform="translate(-13.146 -17.329)" fill="#fff" fill-rule="evenodd"/>
      <path id="Fill-4" d="M23.069,11.332h-4a1.113,1.113,0,0,0,0,2.227h3.173V15.37a2.507,2.507,0,0,1-.892,1.918l-1.388,1.169A5.49,5.49,0,0,0,18.545,20.3,5.607,5.607,0,0,0,18,22.563l-.04,1.585q0,.127,0,.254v.972a1.1,1.1,0,0,0,1.1,1.1H31.6a1.4,1.4,0,0,0,1.4-1.4V7.42a4.613,4.613,0,0,0-4.613-4.613H26.17V1.244a1.245,1.245,0,0,0-2.491,0l0,1.563H17.759V1.254a1.254,1.254,0,0,0-2.507,0V2.807H9.436V1.237A1.237,1.237,0,0,0,8.2,0,1.252,1.252,0,0,0,6.948,1.237L6.929,2.807H4.613A4.613,4.613,0,0,0,0,7.42V28.387A4.611,4.611,0,0,0,4.612,33h0l27.135-.006a1.252,1.252,0,0,0,0-2.5H5.124a2.607,2.607,0,0,1-2.607-2.607V7.813A2.607,2.607,0,0,1,5.124,5.206H6.962V6.591a1.23,1.23,0,1,0,2.461,0V5.206h5.813l.009,1.37a1.25,1.25,0,0,0,2.5,0V5.206h5.937V6.571a1.254,1.254,0,0,0,2.507,0l.006-1.366h1.7a2.607,2.607,0,0,1,2.607,2.6l.03,16.467H20.268V22.887A3.678,3.678,0,0,1,21.333,20.3l.7-.709a10.027,10.027,0,0,0,.685-.767l.715-.887a4.691,4.691,0,0,0,1.038-2.943V12.736a1.4,1.4,0,0,0-1.4-1.4" transform="translate(0)" fill="#fff" fill-rule="evenodd"/>
    </g>
    <path id="eazy" d="M136.093,52.9a17.926,17.926,0,0,0,7.845-1.884c1.115-.538,1.654-1.115,1.654-1.884a1.257,1.257,0,0,0-1.307-1.231c-1.692,0-4.115,2.346-7.922,2.346-3.884,0-6.23-2.038-6.422-5.653h13.028c1.99-.006,2.7-.11,2.7-1.768,0-4.192-3.5-8.229-9.191-8.229-5.807,0-9.806,3.73-9.806,9.114C126.672,49.32,130.287,52.9,136.093,52.9Zm6.153-10.767H130.018a6.231,6.231,0,0,1,6.46-4.961A5.544,5.544,0,0,1,142.246,42.129ZM156.667,52.9a10.4,10.4,0,0,0,7.037-2.846L163.9,51.2a1.3,1.3,0,0,0,1.307,1.231h2.961c1,0,1.5-.461,1.5-1.346,0-1.115-.654-1.307-2.23-1.307h-.961v-8.5c0-4.538-2.23-6.653-7.037-6.653-4.23,0-7,1.346-7,2.769a1.357,1.357,0,0,0,1.269,1.461c1.461,0,3-1.577,5.653-1.577,2.884,0,4.23,1.346,4.23,4.23v.115a18.214,18.214,0,0,0-4.461-.577c-5.576,0-8.691,2.346-8.691,6.23C150.437,50.589,152.9,52.9,156.667,52.9Zm.461-2.884c-2.192,0-3.692-1.269-3.692-2.923,0-2.115,2.192-3.615,6.191-3.615a12.4,12.4,0,0,1,3.961.654v2.038C163.589,47.859,160.512,50.012,157.128,50.012Zm31.148,2.423c1.461,0,2.23-.308,2.23-1.577V47.744c0-1-.423-1.5-1.307-1.5-1.2,0-1.339.764-1.346,2.435v1.1h-9.345l10.306-10.075c1.115-1.077,1.692-2,1.692-2.73,0-1.231-.884-1.884-2.73-1.884h-9.96c-1.73,0-2.615.423-2.615,1.5v3.192c0,1,.461,1.5,1.346,1.5,1.231,0,1.346-.808,1.346-2.576v-.961h8.96L176.125,48.474c-.769.769-1.346,1.346-1.346,2.269,0,1.115.731,1.692,2.153,1.692Zm17.651,7.5c1,0,1.538-.461,1.538-1.346,0-1.115-.692-1.346-2.346-1.346h-.808l9.883-19.5c1.307-.038,1.884-.346,1.884-1.346,0-.884-.5-1.307-1.5-1.307h-4.653c-1.231,0-1.769.192-1.769,1.307,0,1.077.654,1.346,2.269,1.346h.731l-5.23,10.344L200.89,37.745h.692c1.538,0,2.192-.269,2.192-1.346,0-1.115-.538-1.307-1.769-1.307h-5.23c-1,0-1.5.423-1.5,1.307,0,1.077.615,1.346,2.153,1.346l6.883,13.5-3.076,6H197.16c-.961,0-1.423.461-1.423,1.346,0,1.038.461,1.346,1.577,1.346Z" transform="translate(-82.631 -27.336)" fill="#fff"/>
  </g>
</svg>
