<svg xmlns="http://www.w3.org/2000/svg" width="133.448" height="55.132" viewBox="0 0 133.448 55.132">
  <g id="Group_135193" data-name="Group 135193" transform="translate(-270 -40)">
    <g id="Group_135045" data-name="Group 135045" transform="translate(270 40)">
      <g id="Group_43645" data-name="Group 43645" transform="translate(0 0)">
        <g id="eazy_logo" transform="translate(0)">
          <g id="Group-6">
            <path id="Fill-2" d="M23.475,29h4.2a1.125,1.125,0,1,1,0,2.249H24.339V36.7h2.3a1.064,1.064,0,1,1,0,2.127h-2.3v3.242h3.347a1.111,1.111,0,1,1,0,2.221H23.475A1.447,1.447,0,0,1,22,42.875V30.418A1.447,1.447,0,0,1,23.475,29" transform="translate(-13.146 -17.329)" fill="#fff" fill-rule="evenodd"/>
            <path id="Fill-4" d="M23.069,11.332h-4a1.113,1.113,0,0,0,0,2.227h3.173V15.37a2.507,2.507,0,0,1-.892,1.918l-1.388,1.169A5.49,5.49,0,0,0,18.545,20.3,5.607,5.607,0,0,0,18,22.563l-.04,1.585q0,.127,0,.254v.972a1.1,1.1,0,0,0,1.1,1.1H31.6a1.4,1.4,0,0,0,1.4-1.4V7.42a4.613,4.613,0,0,0-4.613-4.613H26.17V1.244a1.245,1.245,0,0,0-2.491,0l0,1.563H17.759V1.254a1.254,1.254,0,0,0-2.507,0V2.807H9.436V1.237A1.237,1.237,0,0,0,8.2,0,1.252,1.252,0,0,0,6.948,1.237L6.929,2.807H4.613A4.613,4.613,0,0,0,0,7.42V28.387A4.611,4.611,0,0,0,4.612,33h0l27.135-.006a1.252,1.252,0,0,0,0-2.5H5.124a2.607,2.607,0,0,1-2.607-2.607V7.813A2.607,2.607,0,0,1,5.124,5.206H6.962V6.591a1.23,1.23,0,1,0,2.461,0V5.206h5.813l.009,1.37a1.25,1.25,0,0,0,2.5,0V5.206h5.937V6.571a1.254,1.254,0,0,0,2.507,0l.006-1.366h1.7a2.607,2.607,0,0,1,2.607,2.6l.03,16.467H20.268V22.887A3.678,3.678,0,0,1,21.333,20.3l.7-.709a10.027,10.027,0,0,0,.685-.767l.715-.887a4.691,4.691,0,0,0,1.038-2.943V12.736a1.4,1.4,0,0,0-1.4-1.4" transform="translate(0)" fill="#fff" fill-rule="evenodd"/>
          </g>
          <path id="eazy" d="M136.093,52.9a17.926,17.926,0,0,0,7.845-1.884c1.115-.538,1.654-1.115,1.654-1.884a1.257,1.257,0,0,0-1.307-1.231c-1.692,0-4.115,2.346-7.922,2.346-3.884,0-6.23-2.038-6.422-5.653h13.028c1.99-.006,2.7-.11,2.7-1.768,0-4.192-3.5-8.229-9.191-8.229-5.807,0-9.806,3.73-9.806,9.114C126.672,49.32,130.287,52.9,136.093,52.9Zm6.153-10.767H130.018a6.231,6.231,0,0,1,6.46-4.961A5.544,5.544,0,0,1,142.246,42.129ZM156.667,52.9a10.4,10.4,0,0,0,7.037-2.846L163.9,51.2a1.3,1.3,0,0,0,1.307,1.231h2.961c1,0,1.5-.461,1.5-1.346,0-1.115-.654-1.307-2.23-1.307h-.961v-8.5c0-4.538-2.23-6.653-7.037-6.653-4.23,0-7,1.346-7,2.769a1.357,1.357,0,0,0,1.269,1.461c1.461,0,3-1.577,5.653-1.577,2.884,0,4.23,1.346,4.23,4.23v.115a18.214,18.214,0,0,0-4.461-.577c-5.576,0-8.691,2.346-8.691,6.23C150.437,50.589,152.9,52.9,156.667,52.9Zm.461-2.884c-2.192,0-3.692-1.269-3.692-2.923,0-2.115,2.192-3.615,6.191-3.615a12.4,12.4,0,0,1,3.961.654v2.038C163.589,47.859,160.512,50.012,157.128,50.012Zm31.148,2.423c1.461,0,2.23-.308,2.23-1.577V47.744c0-1-.423-1.5-1.307-1.5-1.2,0-1.339.764-1.346,2.435v1.1h-9.345l10.306-10.075c1.115-1.077,1.692-2,1.692-2.73,0-1.231-.884-1.884-2.73-1.884h-9.96c-1.73,0-2.615.423-2.615,1.5v3.192c0,1,.461,1.5,1.346,1.5,1.231,0,1.346-.808,1.346-2.576v-.961h8.96L176.125,48.474c-.769.769-1.346,1.346-1.346,2.269,0,1.115.731,1.692,2.153,1.692Zm17.651,7.5c1,0,1.538-.461,1.538-1.346,0-1.115-.692-1.346-2.346-1.346h-.808l9.883-19.5c1.307-.038,1.884-.346,1.884-1.346,0-.884-.5-1.307-1.5-1.307h-4.653c-1.231,0-1.769.192-1.769,1.307,0,1.077.654,1.346,2.269,1.346h.731l-5.23,10.344L200.89,37.745h.692c1.538,0,2.192-.269,2.192-1.346,0-1.115-.538-1.307-1.769-1.307h-5.23c-1,0-1.5.423-1.5,1.307,0,1.077.615,1.346,2.153,1.346l6.883,13.5-3.076,6H197.16c-.961,0-1.423.461-1.423,1.346,0,1.038.461,1.346,1.577,1.346Z" transform="translate(-82.631 -27.336)" fill="#fff"/>
        </g>
      </g>
    </g>
    <path id="Path_173252" data-name="Path 173252" d="M-131.778,0h1.458l.342-4.788c.2-2.646.342-5.058.342-5.274,0,0,.81,2.358,1.836,5.274l1.6,4.518h1.386l1.692-4.518c1.008-2.718,1.962-5.382,1.962-5.382s.18,2.646.432,5.382L-120.312,0h1.458l-1.062-12.132h-1.854L-123.444-7.7C-124.452-5-125.5-2.052-125.5-2.052S-126.5-5.094-127.44-7.7l-1.6-4.428H-130.9Zm20.394-4.212v1.17A1.933,1.933,0,0,1-113.508-1.1c-1.188,0-1.764-.648-1.764-1.53,0-.846.666-1.584,2.3-1.584ZM-116.1-7.218a4.923,4.923,0,0,1,2.592-.774c1.6,0,2.124.81,2.124,2.178v.468h-1.656c-2.286,0-3.726,1.008-3.726,2.772A2.641,2.641,0,0,0-113.922.09a2.789,2.789,0,0,0,2.556-1.17V0h1.4V-5.778c0-2.232-1.008-3.492-3.438-3.492a5.591,5.591,0,0,0-2.7.63ZM-107.442,0h1.4V-12.654h-1.4Zm3.258-4.788,3.6-4.338h-1.692l-3.582,4.338L-102.186,0h1.71Zm11.2-.36h-4.9c.18-1.89,1.278-2.844,2.592-2.844a2.226,2.226,0,0,1,2.3,2.484Zm.846,3.348a4.683,4.683,0,0,1-2.448.63,3,3,0,0,1-3.294-2.79h6.228a7.685,7.685,0,0,0,.09-1.062c0-2.754-1.512-4.212-3.726-4.212-2.322,0-4.05,1.728-4.05,4.7A4.36,4.36,0,0,0-94.734.09a6.262,6.262,0,0,0,2.592-.558Zm9.648,1.566a2.682,2.682,0,0,1-2.574,2.07,2.464,2.464,0,0,1-.612-.072V3.042a2.638,2.638,0,0,0,.756.09c1.494,0,2.88-.72,3.87-3.366l3.294-8.892h-1.53L-80.352-6.12c-1.3,3.672-1.44,4.14-1.44,4.14s-.162-.468-1.6-4.14l-1.188-3.006h-1.6Zm10.062.4c2.772,0,4.32-2.07,4.32-4.7,0-2.61-1.458-4.716-4.32-4.716-2.574,0-4.248,2.106-4.248,4.752C-76.68-1.908-75.132.162-72.432.162Zm0-8.154c2.052,0,2.844,1.638,2.844,3.474s-.936,3.42-2.844,3.42c-1.728,0-2.772-1.6-2.772-3.42C-75.2-6.354-74.25-7.992-72.432-7.992Zm12.078-1.134V-4.1c0,1.818-.99,2.934-2.484,2.934A1.789,1.789,0,0,1-64.71-3.2V-9.126h-1.422v6.282A2.732,2.732,0,0,0-63.216.108a2.831,2.831,0,0,0,2.862-1.692V0h1.422V-9.126Zm5.454,0h-1.4L-56.322,0H-54.9V-4.986c0-1.458.882-2.916,2.214-2.916a2.324,2.324,0,0,1,.774.126v-1.4a2.462,2.462,0,0,0-.5-.036A2.543,2.543,0,0,0-54.9-7.524ZM-45.972,0h1.422V-12.726h-1.422Zm4.194,0h1.422V-9.126h-1.422Zm-.216-11.988a.9.9,0,0,0,.918.918.915.915,0,0,0,.936-.918.93.93,0,0,0-.936-.936A.915.915,0,0,0-41.994-11.988Zm8.694-.738a3.861,3.861,0,0,0-.882-.126,2.572,2.572,0,0,0-2.682,2.88v.846H-38.43v1.152h1.566V0h1.422V-7.974h2.016V-9.126h-2.016v-.828c0-1.188.63-1.62,1.314-1.62a2.583,2.583,0,0,1,.828.144Zm7.38,7.578h-4.9c.18-1.89,1.278-2.844,2.592-2.844a2.226,2.226,0,0,1,2.3,2.484Zm.846,3.348a4.683,4.683,0,0,1-2.448.63,3,3,0,0,1-3.294-2.79h6.228a7.685,7.685,0,0,0,.09-1.062c0-2.754-1.512-4.212-3.726-4.212-2.322,0-4.05,1.728-4.05,4.7A4.36,4.36,0,0,0-27.666.09a6.262,6.262,0,0,0,2.592-.558Zm8.658.522v-4.14h4.608V-6.7h-4.608v-4.158h5.22v-1.278h-6.678V0h6.768V-1.278Zm15.21-10.854h-8.01v1.242H-2.9L-9.306-1.206V0h8.37V-1.242H-7.614l6.408-9.7Z" transform="translate(403.318 92)" fill="#fff"/>
  </g>
</svg>
