<svg xmlns="http://www.w3.org/2000/svg" width="116.317" height="33" viewBox="0 0 116.317 33">
  <g id="Group_138183" data-name="Group 138183" transform="translate(-270 -41)">
    <g id="Group_135045" data-name="Group 135045" transform="translate(270 41)">
      <g id="Group_43645" data-name="Group 43645" transform="translate(0 0)">
        <g id="eazy_logo" transform="translate(0)">
          <g id="Group-6">
            <path id="Fill-2" d="M23.475,29h4.2a1.125,1.125,0,1,1,0,2.249H24.339V36.7h2.3a1.064,1.064,0,1,1,0,2.127h-2.3v3.242h3.347a1.111,1.111,0,1,1,0,2.221H23.475A1.447,1.447,0,0,1,22,42.875V30.418A1.447,1.447,0,0,1,23.475,29" transform="translate(-13.146 -17.329)" fill="#fff" fill-rule="evenodd"/>
            <path id="Fill-4" d="M23.069,11.332h-4a1.113,1.113,0,0,0,0,2.227h3.173V15.37a2.507,2.507,0,0,1-.892,1.918l-1.388,1.169A5.49,5.49,0,0,0,18.545,20.3,5.607,5.607,0,0,0,18,22.563l-.04,1.585q0,.127,0,.254v.972a1.1,1.1,0,0,0,1.1,1.1H31.6a1.4,1.4,0,0,0,1.4-1.4V7.42a4.613,4.613,0,0,0-4.613-4.613H26.17V1.244a1.245,1.245,0,0,0-2.491,0l0,1.563H17.759V1.254a1.254,1.254,0,0,0-2.507,0V2.807H9.436V1.237A1.237,1.237,0,0,0,8.2,0,1.252,1.252,0,0,0,6.948,1.237L6.929,2.807H4.613A4.613,4.613,0,0,0,0,7.42V28.387A4.611,4.611,0,0,0,4.612,33h0l27.135-.006a1.252,1.252,0,0,0,0-2.5H5.124a2.607,2.607,0,0,1-2.607-2.607V7.813A2.607,2.607,0,0,1,5.124,5.206H6.962V6.591a1.23,1.23,0,1,0,2.461,0V5.206h5.813l.009,1.37a1.25,1.25,0,0,0,2.5,0V5.206h5.937V6.571a1.254,1.254,0,0,0,2.507,0l.006-1.366h1.7a2.607,2.607,0,0,1,2.607,2.6l.03,16.467H20.268V22.887A3.678,3.678,0,0,1,21.333,20.3l.7-.709a10.027,10.027,0,0,0,.685-.767l.715-.887a4.691,4.691,0,0,0,1.038-2.943V12.736a1.4,1.4,0,0,0-1.4-1.4" transform="translate(0)" fill="#fff" fill-rule="evenodd"/>
          </g>
        </g>
      </g>
    </g>
    <path id="Path_211863" data-name="Path 211863" d="M-121.044-27.715v4.388h4.3a3.246,3.246,0,0,1,2.194.593,1.991,1.991,0,0,1,.655,1.549,1.967,1.967,0,0,1-.655,1.529,3.246,3.246,0,0,1-2.194.593h-9.234a3.246,3.246,0,0,1-2.194-.593,1.991,1.991,0,0,1-.655-1.549,1.953,1.953,0,0,1,.665-1.529,3.25,3.25,0,0,1,2.183-.593h.665V-40h-.665a3.246,3.246,0,0,1-2.194-.593,1.991,1.991,0,0,1-.655-1.549,1.991,1.991,0,0,1,.655-1.549,3.246,3.246,0,0,1,2.194-.593l9.815.021a9.637,9.637,0,0,1,6.852,2.36,7.573,7.573,0,0,1,2.527,5.75,7.644,7.644,0,0,1-.851,3.534,8.013,8.013,0,0,1-2.152,2.464,11.7,11.7,0,0,1-3.078,1.83,11.614,11.614,0,0,1-4.149.614Zm0-4.263h3.95a7.058,7.058,0,0,0,4.419-1.259,3.728,3.728,0,0,0,1.633-3.026,3.357,3.357,0,0,0-1.32-2.62,5.666,5.666,0,0,0-3.774-1.123h-4.908Zm23.624,3.286v5.365h1.539a3.246,3.246,0,0,1,2.194.593,1.991,1.991,0,0,1,.655,1.549,1.967,1.967,0,0,1-.655,1.529,3.246,3.246,0,0,1-2.194.593h-6.466a3.246,3.246,0,0,1-2.194-.593,1.991,1.991,0,0,1-.655-1.549,1.953,1.953,0,0,1,.665-1.529,3.25,3.25,0,0,1,2.183-.593h.665V-40h-.664a3.246,3.246,0,0,1-2.194-.593,1.991,1.991,0,0,1-.655-1.549,1.991,1.991,0,0,1,.655-1.549,3.246,3.246,0,0,1,2.194-.593l9.649.021q4.513,0,7,2.235a7.046,7.046,0,0,1,2.485,5.438,6.1,6.1,0,0,1-1.166,3.628,10.1,10.1,0,0,1-3.514,2.9,27.076,27.076,0,0,1,2.89,3.036q.957,1.185,2.579,3.7A4.514,4.514,0,0,1-80.285-23a2.072,2.072,0,0,1,.936,1.809,1.982,1.982,0,0,1-.644,1.529,3.2,3.2,0,0,1-2.183.593H-84.61q-5.179-8.006-8.588-9.628Zm0-4.263h3.327a9.135,9.135,0,0,0,3.307-.562,6.357,6.357,0,0,0,2.63-1.58,2.619,2.619,0,0,0,.676-1.643,2.891,2.891,0,0,0-1.289-2.235,5.928,5.928,0,0,0-3.763-1.03H-97.42ZM-55.5-31.666a13.136,13.136,0,0,1-3.608,9.451,11.231,11.231,0,0,1-8.349,3.775,11.117,11.117,0,0,1-7.695-3.14,13.056,13.056,0,0,1-4.242-10.087,13.118,13.118,0,0,1,4.242-10.107,11.116,11.116,0,0,1,7.695-3.14A11.228,11.228,0,0,1-59.1-41.139,13.162,13.162,0,0,1-55.5-31.666Zm-4.264,0a9.12,9.12,0,0,0-2.35-6.436,7.114,7.114,0,0,0-5.344-2.546,7.08,7.08,0,0,0-5.324,2.558,9.136,9.136,0,0,0-2.35,6.426,9.1,9.1,0,0,0,2.35,6.415A7.089,7.089,0,0,0-67.456-22.7a7.124,7.124,0,0,0,5.344-2.537A9.087,9.087,0,0,0-59.761-31.666Z" transform="translate(441.813 89.176)" fill="#fff"/>
  </g>
</svg>
