<svg xmlns="http://www.w3.org/2000/svg" width="24.143" height="19.617" viewBox="0 0 24.143 19.617">
  <path id="twitter_1_" data-name="twitter (1)" d="M25.681,6.308a9.887,9.887,0,0,1-2.839.8,4.96,4.96,0,0,0,2.169-2.746,9.971,9.971,0,0,1-3.139,1.212A4.875,4.875,0,0,0,18.227,4,4.945,4.945,0,0,0,13.3,8.951a5.145,5.145,0,0,0,.127,1.131,14.072,14.072,0,0,1-10.2-5.17A4.931,4.931,0,0,0,4.76,11.5a4.9,4.9,0,0,1-2.25-.577v.035a4.954,4.954,0,0,0,3.97,4.858,4.854,4.854,0,0,1-2.227.081,4.939,4.939,0,0,0,4.616,3.439A9.834,9.834,0,0,1,2.717,21.46a10.065,10.065,0,0,1-1.177-.069,14.014,14.014,0,0,0,7.593,2.227,14,14,0,0,0,14.09-14.09c0-.219,0-.427-.012-.646A9.892,9.892,0,0,0,25.681,6.308Z" transform="translate(-1.539 -4)" fill="#fff"/>
</svg>
