<svg xmlns="http://www.w3.org/2000/svg" width="26.684" height="18.68" viewBox="0 0 26.684 18.68">
  <path id="youtube_1_" data-name="youtube (1)" d="M12.674,18.342l6.925-4-6.925-4v8.005M28.1,7.9a13.793,13.793,0,0,1,.374,2.535c.093,1.067.133,1.988.133,2.788l.08,1.121a26.508,26.508,0,0,1-.587,6.444,3.126,3.126,0,0,1-2.308,2.308,18.81,18.81,0,0,1-3.536.374c-1.734.093-3.322.133-4.79.133l-2.121.08c-5.59,0-9.073-.213-10.447-.587a3.126,3.126,0,0,1-2.308-2.308,13.794,13.794,0,0,1-.374-2.535c-.093-1.067-.133-1.988-.133-2.788L2,14.339A26.508,26.508,0,0,1,2.587,7.9,3.126,3.126,0,0,1,4.9,5.587a18.81,18.81,0,0,1,3.536-.374c1.734-.093,3.322-.133,4.79-.133L15.342,5c5.59,0,9.073.213,10.447.587A3.126,3.126,0,0,1,28.1,7.9Z" transform="translate(-2 -5)" fill="#fff"/>
</svg>
